<?xml version="1.0" encoding="utf-8"?>
<!-- Generator: Adobe Illustrator 28.3.0, SVG Export Plug-In . SVG Version: 6.00 Build 0)  -->
<svg version="1.1" id="logo-white" xmlns="http://www.w3.org/2000/svg" xmlns:xlink="http://www.w3.org/1999/xlink" x="0px" y="0px"
	 viewBox="0 0 1000 319.7" style="enable-background:new 0 0 1000 319.7;" xml:space="preserve">
<style type="text/css">
	.st0{fill-rule:evenodd;clip-rule:evenodd;fill:#009BD2;}
</style>
<g id="Home-3-Copy-9" transform="translate(-171 -4829)">
	<g id="Group-25" transform="translate(1 4773)">
		<g id="Group-22" transform="translate(140 56)">
			<g id="Group_1" transform="translate(30)">
				<g id="Logo-Jenius">
					<path id="Fill-1" class="st0" d="M366.1,229.1c0,19.7-12.2,30.8-38.1,31.6v30c29.5,0,66.8-16.4,66.8-61.6v-147h-28.6V229.1
						L366.1,229.1z"/>
					<path id="Combined-Shape" class="st0" d="M535.5,145.5c0,18.9-8.4,26.1-26.3,26.1h-60.4c2.5,16,12.7,31.6,35,31.6
						c12.9-0.5,25.4-4.7,36-12.2l14.6,23.3c-14.5,11.3-32.2,17.6-50.6,17.8c-50.1,0-65.3-37.5-65.3-76.3s14.9-76.3,58.5-76.3
						C523.1,79.4,535.5,122.2,535.5,145.5z M448.6,142.8h56.8c-1.8-18.4-9.5-34.4-28.4-34.4S450.5,124.4,448.6,142.8L448.6,142.8z"
						/>
					<path id="Fill-7" class="st0" d="M613.5,79.5c-35.8,0-54.2,30.2-54.2,30.2v120.7h28.7v-111c6.5-7.1,15.8-11.2,25.4-11.1
						c15.6,0.1,28.2,12.8,28.2,28.4c0,0.1,0,0.3,0,0.4v93.2h28.7v-93.2C670.4,109.1,651.2,79.5,613.5,79.5"/>
					<path id="Fill-9" class="st0" d="M702.3,230.4H731V81.1h-28.7V230.4z"/>
					<path id="Fill-11" class="st0" d="M948,139.9h0.3c-9.8-2.8-22.5-7.7-22.5-18c0-7.5,7.6-13.6,22-13.6c12.8,0.7,25.3,4,36.9,9.7
						l9.2-26.3c-14.3-7.3-30-11.5-46.1-12.2c-24.9,0-50.9,13-50.9,42.5c0,27.2,23.3,40.8,46.3,46.6c12.4,2.7,28.1,8.1,28.1,18.5
						c0,11.1-12.8,16.1-25.2,16.1c-12.2,0-28.9-8-41.7-15l-11.2,27.5c16.1,9.5,34.2,15.1,52.9,16.4c26.2,0,53.9-12.8,53.9-45
						C1000,156.1,969.7,145.5,948,139.9"/>
					<path id="Fill-12" class="st0" d="M845.9,174.4c0.5,15.5-11.7,28.4-27.2,28.8c-15.5,0.5-28.4-11.7-28.8-27.2c0-0.6,0-1.1,0-1.7
						V81.1h-28.7v93.2c0,27.9,19.1,57.6,56.5,57.7h0.3c37.4-0.1,56.5-29.8,56.5-57.7V81.1h-28.6V174.4z"/>
					<path id="Combined-Shape-2" class="st0" d="M278.8,153.3c0,66.7-52.6,117.8-112.3,117.8c-7.1,0-14.2-0.6-21.2-1.7
						c-9.6,2.9-19.5,4.6-29.6,4.9C52.5,274.2,0,235.4,0,170.4c1.1-42.1,26.1-80,64.4-97.5C88,41.8,127.8,29,155.9,29
						C226.9,29,278.8,84.4,278.8,153.3z M164.8,41.2c-22.8,0.2-44.9,8.1-62.8,22.3c1.3,0,3.5-0.1,4.8-0.1c15.8-0.3,31.5,3.8,45.1,12
						c0,0,68.2,26.4,68.2,100.1c-0.2,33.2-17.5,63.9-45.8,81.2c45.2-9.1,84.1-54.1,84.1-112.2C258.5,94.6,218.2,41.2,164.8,41.2z
						 M113.1,78.8c-28.5,0-50.6,26-50.6,57.2c0,37.9,24.3,64.6,51.6,64.6c30.4,0,52.3-25.2,52.3-62.8
						C166.4,110,143.1,78.8,113.1,78.8z M109,262.5c3.4,0,6.8-0.2,10.2-0.7C73,242.8,43.5,195.7,43.5,138.9c0-4.2,0.3-8.2,0.7-12.2
						c0.7-9.5,3-18.8,6.7-27.5C31.6,116.5,24,142.1,24,167.8C24.1,220.4,67.7,262.5,109,262.5L109,262.5z M140,256.6
						c35.1-13.6,61.9-48.9,61.9-86.7c0.6-23.9-8-47.1-24-64.8c4.8,10.8,7.2,22.5,7,34.4c0.4,38.7-30.7,70.3-69.3,70.7
						c-19.1,0.2-37.5-7.4-50.8-21.1C77,221.8,105.4,249.4,140,256.6L140,256.6z"/>
				</g>
			</g>
		</g>
	</g>
</g>
</svg>
